PathFileType	4	(X/Y/Z)	30_1_7_p0_0-310_filt_butterworth.trc
DataRate	CameraRate	NumFrames	NumMarkers	Units	OrigDataRate	OrigDataStartFrame	OrigNumFrames
59.0	59.0	5	27	m	59.0	0	310
Frame#	Time	RHip			RKnee			RAnkle			RBigToe			RSmallToe			RHeel			LHip			LKnee			LAnkle			LBigToe			LSmallToe			LHeel			Neck			Head			Nose			RShoulder			RElbow			RWrist			RThumb			RIndex			RPinky			LShoulder			LElbow			LWrist			LThumb			LIndex			LPinky			
		X1	Y1	Z1	X2	Y2	Z2	X3	Y3	Z3	X4	Y4	Z4	X5	Y5	Z5	X6	Y6	Z6	X7	Y7	Z7	X8	Y8	Z8	X9	Y9	Z9	X10	Y10	Z10	X11	Y11	Z11	X12	Y12	Z12	X13	Y13	Z13	X14	Y14	Z14	X15	Y15	Z15	X16	Y16	Z16	X17	Y17	Z17	X18	Y18	Z18	X19	Y19	Z19	X20	Y20	Z20	X21	Y21	Z21	X22	Y22	Z22	X23	Y23	Z23	X24	Y24	Z24	X25	Y25	Z25	X26	Y26	Z26	X27	Y27	Z27	
0	0.0	0.2660353394694629	0.3839454276544053	0.9771537935018325	0.28322803753936066	0.49266715015334095	1.41895084944423	0.29367507440178425	0.5298403741632096	1.7835163574535868	0.27162154114223297	0.3574771779230197	1.8105114566452	0.32847974415598274	0.36078673375610437	1.7883124626709455	0.2684723985211531	0.6113812698790485	1.8576590763411533	0.06411649540038677	0.38945710950490425	0.9773768897747228	0.06732415793965929	0.5192558333426807	1.4535107229246167	0.07255500972681121	0.5319409399700793	1.807763964384736	0.08829071653102886	0.3168421850198675	1.7859829653266293	0.0379333289278399	0.37757043191249795	1.8086073858390512	0.08782416199293107	0.5542390569409148	1.8364799074359164	0.1775792642141808	0.4410102845231471	0.49863212554228775	0.1799995139243753	0.4496173983740375	0.2535274289904611	0.17282756150629186	0.3360245222921996	0.3743506518113028	0.31299417195252777	0.433160302019162	0.6003160296301959	0.369539869302127	0.410560524629682	0.8405589930244584	0.3759574548910552	0.3382925056239598	1.0584227576408582	0.30831329238426414	0.3013943706931961	1.15564408044771	0.33291761199238656	0.2599652345217087	1.1536905465547083	0.37957290823555445	0.31803339097987204	1.1668739400936399	0.012786219465087324	0.4421664154230514	0.5822055046525593	-0.03517824660855352	0.4476028194828222	0.8241655882350729	-0.04882468495152208	0.3798365466861251	1.0235648342586152	-0.01693323971386375	0.37145167910183396	1.1298786547164692	-0.0379757458542688	0.3283605294672943	1.1340792092659333	-0.07701168606686777	0.4030937288211576	1.1421197426440592
1	0.0169491525423728	0.2661776583865136	0.3829538017666371	0.9770801571368815	0.28626099181842296	0.4882132836125297	1.4145180926083463	0.29650313554164903	0.5315854780102137	1.7830927915930184	0.2715440824772664	0.35775473911956396	1.80992704430983	0.328748327038935	0.3609918814426558	1.788054787584344	0.273261246992557	0.6028064709625759	1.8503521509892966	0.06618744407833738	0.3945916528153482	0.9765096050734801	0.06676281642749343	0.5199483856701884	1.4473834472234488	0.07267900767848369	0.5311031647205726	1.8011505047738545	0.08874059535996633	0.32772183878236544	1.7933877641177847	0.03456739729551005	0.3868086640355408	1.8123686436143298	0.0873091878388407	0.5532862896705341	1.8328254556575807	0.17759352510951842	0.44110206795682827	0.4986240473438706	0.1798955722261879	0.4499098757392559	0.2518237332936461	0.17492435076228355	0.3288020879841775	0.3731257447225961	0.3143832541570333	0.4337290322503221	0.6004399098423011	0.37097127663497237	0.4010446894353608	0.8369496545853492	0.37617079916688667	0.3384881081283307	1.0573280634045898	0.3065530786875229	0.3094082543935175	1.1546169863330746	0.32719119034403654	0.26594959708392374	1.1542596561363723	0.3791732737924909	0.31677151966951206	1.1650615524102106	0.013174293890978624	0.4507615746478078	0.5840025861709084	-0.03492973167360263	0.4476256955397873	0.8230595841369006	-0.047701746315027764	0.3723627330268128	1.0180763973747546	-0.014690198434902156	0.3801158572749289	1.1305785194269302	-0.034923741001911396	0.3358197134717086	1.1371813374015058	-0.07209964640846526	0.39119711662780343	1.1373771965106145
2	0.0338983050847457	0.2661235123236084	0.38235883805645166	0.9768827355501208	0.2892007964555692	0.48468210022739266	1.409947492366879	0.2981783572392697	0.5328642988225364	1.7830075722693208	0.271507905613788	0.35788933841437176	1.8095893649884989	0.3288893978323034	0.3610983474761335	1.7878999551527874	0.2760489506360247	0.5978666492885176	1.8454208495989322	0.06758467262631807	0.39907660325433003	0.9765314340134963	0.06632256370880012	0.5203162165482202	1.444244615713056	0.07264212974251327	0.5305647028472891	1.7976429357343053	0.08889424535921028	0.33230158861350145	1.7950375738946573	0.032574036546094594	0.39223897574025446	1.8146063334657645	0.0869912952870241	0.5527523215194101	1.8307146599372082	0.17760232290730227	0.4411406655841489	0.4986117237852389	0.17988039895471436	0.4500114131982026	0.25145387930406016	0.17621828819004623	0.32436567313147047	0.3723685902364528	0.31575670314958154	0.4343170087800889	0.6005029311902671	0.371116090026448	0.39340826173500415	0.8341935247225342	0.3754795898755852	0.33767444316849005	1.0558380385581838	0.30498774947632057	0.31316927513700843	1.1516565363069045	0.3226263244750572	0.2721016816463449	1.1550513276801513	0.377276177785384	0.31330625865806466	1.1626320245262782	0.013721307209351075	0.45334888065084217	0.5845028806168795	-0.034897576253780656	0.44758756511746406	0.8229143362979434	-0.0457556602894767	0.36612450907964694	1.0141784987657931	-0.00987698930674163	0.3820017038722023	1.1283610183874273	-0.031166825108410668	0.33809933346252186	1.1368049986903583	-0.0654506628436904	0.37439045130534176	1.129499862997835
3	0.0508474576271186	0.26563513951355244	0.3835971883555296	0.9764754431729765	0.2912957606031187	0.48382032922397994	1.4066992774894946	0.2986752359871622	0.533477581089737	1.7831806383729791	0.2715089253567025	0.35786555670587805	1.8095605685944192	0.3288756429943399	0.36106973109997287	1.7878330053768678	0.2767801463866263	0.5966529356548842	1.8434293053868211	0.06800526392673269	0.40496928561206136	0.9782837570933959	0.06608942894390853	0.5204869737504336	1.4439448505523849	0.07236788911198873	0.5303512790362758	1.797414404385711	0.08842809186967052	0.33144984015787315	1.7909181173244142	0.03207952232874915	0.393630408278277	1.8151998214997775	0.08689032424695883	0.5526316028293929	1.8301801075664808	0.1776060464263481	0.44113705957037896	0.49860404021349847	0.1799465944432716	0.44992679254980766	0.25232608356918756	0.17665317398745006	0.3229102278175169	0.3721116876997948	0.3167361717826116	0.43479737907680277	0.6002752463888062	0.3700792856400193	0.38840930265251034	0.8328965887999198	0.37285952826052127	0.33474248449550736	1.053516846144729	0.30285990805400725	0.3120316171875343	1.1471957390452008	0.318630391279159	0.27764949492484997	1.1552995113673274	0.37250539406326216	0.30629435809192973	1.1583476020122736	0.014365313893679309	0.45187606601723146	0.5841321060752332	-0.03516047264683792	0.4475976078810304	0.8241297580828711	-0.04289261323316651	0.3609048855314421	1.0123065410773397	-0.0003810322889249548	0.37361555647567557	1.1216590088665541	-0.025649864679017805	0.33323999011297284	1.1327574375352372	-0.057461226218956954	0.35499895605836707	1.12026521109085
4	0.0677966101694915	0.2646209501275382	0.38861498303182723	0.9761185309320715	0.2921466048405296	0.4867196714405755	1.406219666238467	0.29865859250387294	0.5335789308522259	1.7831185839793058	0.271521082115331	0.3577758391823301	1.8097469435817044	0.3287729691678078	0.36093077265205775	1.7878110314869355	0.27661029345180943	0.5970003051346833	1.8436833457722295	0.06742497110868559	0.41449134932842985	0.9819723454456782	0.06605172154494376	0.5208076786150786	1.4444284951588386	0.07197599102796337	0.530311865399449	1.7979931564311074	0.08733893136818051	0.3294785409326669	1.7856956810654114	0.032321959031214854	0.39315947034604243	1.814998156609687	0.08690847413224016	0.5526465901875821	1.8302924648041003	0.17760870183919056	0.4411363711018204	0.4986107926131386	0.18001406157707295	0.4498095349224587	0.2532930506305079	0.17657568499444343	0.32318828818834655	0.37214444160053184	0.3169911525879948	0.4350161080472096	0.5995141261643007	0.3689232071886502	0.3861185921859365	0.832878982035602	0.36755421199731897	0.3287185159596453	1.0496434179501335	0.298465687942138	0.30817785452749213	1.1429939985878876	0.3135682350982672	0.2816174812982233	1.1543630198788208	0.36371286385181356	0.295289726909921	1.151560075571643	0.015011682176956287	0.45119131120792794	0.583946132615151	-0.035552758261881534	0.447728996680301	0.8259828939858047	-0.039149082702498894	0.35671606223714525	1.0119062118803597	0.013337676786765083	0.3562290565442173	1.1114433672750785	-0.017452346091742687	0.3221225589802374	1.1264407080554513	-0.04999947516157373	0.3391465241904196	1.1131616016733692
